<?xml version="1.0" encoding="utf-8"?>
<!-- Generator: Adobe Illustrator 16.0.0, SVG Export Plug-In . SVG Version: 6.00 Build 0)  -->
<!DOCTYPE svg PUBLIC "-//W3C//DTD SVG 1.1//EN" "http://www.w3.org/Graphics/SVG/1.1/DTD/svg11.dtd">
<svg version="1.1" id="Layer_2" xmlns="http://www.w3.org/2000/svg" xmlns:xlink="http://www.w3.org/1999/xlink" x="0px" y="0px"
	 width="1024px" height="1024px" viewBox="0 0 1024 1024" enable-background="new 0 0 1024 1024" xml:space="preserve">
<g>
	<path fill="#808184" d="M953.924,325.305c-24.157-57.115-58.737-108.406-102.78-152.449S755.81,94.233,698.695,70.076
		C639.555,45.062,576.741,32.378,512,32.378c-64.742,0-127.555,12.683-186.695,37.697c-57.115,24.158-108.406,58.738-152.449,102.78
		S94.233,268.19,70.076,325.305C45.062,384.445,32.378,447.258,32.378,512c0,64.741,12.683,127.555,37.697,186.695
		c24.158,57.114,58.738,108.405,102.78,152.448s95.334,78.623,152.449,102.78c59.14,25.015,121.954,37.698,186.695,37.698
		c64.741,0,127.555-12.684,186.695-37.698c57.114-24.157,108.405-58.737,152.448-102.78s78.623-95.334,102.78-152.448
		c25.015-59.141,37.698-121.954,37.698-186.695C991.622,447.258,978.938,384.445,953.924,325.305z M925.276,686.578
		c-22.589,53.407-54.931,101.375-96.127,142.571s-89.164,73.538-142.571,96.127c-55.285,23.384-114.021,35.24-174.578,35.24
		c-60.556,0-119.293-11.856-174.579-35.24c-53.407-22.589-101.375-54.931-142.571-96.127
		c-41.196-41.196-73.538-89.164-96.127-142.571C75.339,631.293,63.483,572.557,63.483,512c0-60.556,11.856-119.293,35.24-174.579
		c22.589-53.407,54.931-101.375,96.127-142.571c41.196-41.196,89.164-73.538,142.571-96.127
		C392.707,75.339,451.444,63.483,512,63.483c60.557,0,119.293,11.856,174.578,35.24c53.407,22.589,101.375,54.931,142.571,96.127
		c41.196,41.196,73.538,89.164,96.127,142.571c23.384,55.286,35.24,114.022,35.24,174.579
		C960.517,572.557,948.66,631.293,925.276,686.578z"/>
	<path fill="#808184" d="M739.959,293.721c-5.18-5.181-13.58-5.181-18.76,0L513.09,501.83L304.981,293.721
		c-5.181-5.181-13.579-5.181-18.76,0c-5.181,5.18-5.181,13.58,0,18.76L494.331,520.59L286.222,728.699
		c-5.181,5.181-5.181,13.579,0,18.76c2.59,2.59,5.985,3.886,9.38,3.886s6.79-1.296,9.38-3.886L513.09,539.35l208.109,208.109
		c2.59,2.59,5.985,3.886,9.38,3.886s6.79-1.296,9.38-3.886c5.181-5.181,5.181-13.579,0-18.76L531.85,520.59L739.959,312.48
		C745.14,307.3,745.14,298.901,739.959,293.721z"/>
</g>
</svg>
