<?xml version="1.0" encoding="utf-8"?>
<!-- Generator: Adobe Illustrator 16.0.0, SVG Export Plug-In . SVG Version: 6.00 Build 0)  -->
<!DOCTYPE svg PUBLIC "-//W3C//DTD SVG 1.1//EN" "http://www.w3.org/Graphics/SVG/1.1/DTD/svg11.dtd">
<svg version="1.1" id="Layer_2" xmlns="http://www.w3.org/2000/svg" xmlns:xlink="http://www.w3.org/1999/xlink" x="0px" y="0px"
	 width="1024px" height="1024px" viewBox="0 0 1024 1024" enable-background="new 0 0 1024 1024" xml:space="preserve">
<g>
	<g>
		<g>
			<path fill="#F07F52" d="M514.99,922.59c-0.008,0-0.015,0-0.021,0c-122.212,0-237.297-27.584-324.052-77.674
				c-87.221-50.36-135.258-117.357-135.254-188.649c0.004-70.663,47.322-136.898,133.243-186.499
				c85.468-49.346,199.248-76.522,320.38-76.522c122.212,0,237.294,27.587,324.046,77.677
				c87.23,50.357,135.265,117.357,135.265,188.649c-0.008,70.664-47.331,136.898-133.262,186.499
				C749.87,895.42,636.106,922.59,514.99,922.59z M509.286,398.611c-120.205,0-233.03,26.919-317.697,75.798
				c-84.188,48.607-130.559,113.19-130.559,181.857c-0.003,69.296,47.076,134.644,132.57,184.008
				c85.952,49.623,200.084,76.947,321.368,76.955c120.197,0,233.017-26.918,317.689-75.802
				c84.192-48.61,130.569-113.188,130.569-181.856c0-69.296-47.079-134.644-132.573-184.007
				C744.702,425.94,630.574,398.611,509.286,398.611z"/>
			<path fill="#F07F52" d="M514.698,893.475c-0.012,0-0.016,0-0.03,0c-108.692-0.008-211.048-24.538-288.205-69.089
				c-77.624-44.811-120.378-104.442-120.382-167.921c-0.003-62.923,42.114-121.897,118.593-166.058
				c76.016-43.886,177.201-68.054,284.924-68.054c108.683,0,211.033,24.534,288.188,69.082
				c77.637,44.817,120.383,104.464,120.383,167.942c0,62.923-42.118,121.897-118.594,166.043
				C723.573,869.307,622.399,893.475,514.698,893.475z M509.598,427.722c-106.794,0-207.03,23.91-282.24,67.33
				C152.61,538.215,111.445,595.54,111.449,656.467c0.003,61.481,41.801,119.466,117.697,163.276
				c76.354,44.086,177.753,68.365,285.522,68.365c0.008,0,0.025,0,0.029,0c106.775,0.007,206.988-23.91,282.199-67.33
				c74.744-43.153,115.909-100.473,115.909-161.397c0-61.482-41.801-119.48-117.698-163.301
				C718.745,451.997,617.357,427.722,509.598,427.722z"/>
			<g>
				<path fill="#F07F52" d="M892.713,494.716l-2.062-1.554c-12.997-9.811-27.207-19.178-42.222-27.842
					c-15.09-8.706-31.347-16.919-48.321-24.416l-6.906-3.05l188.355-51.497L892.713,494.716z M809.105,439.066
					c14.69,6.729,28.789,13.978,42,21.604c14.417,8.32,28.102,17.284,40.722,26.667l74.914-91.368L809.105,439.066z"/>
			</g>
			<g>
				<path fill="#F07F52" d="M984.566,931.209l-188.961-52.188l6.897-3.03c16.9-7.438,33.062-15.593,48.041-24.234
					c14.911-8.605,29.018-17.93,41.926-27.694l2.049-1.553L984.566,931.209z M811.478,877.846l158.08,43.647l-75.905-91.614
					c-12.517,9.345-26.111,18.261-40.434,26.52C840.104,863.976,826.094,871.171,811.478,877.846z"/>
			</g>
			<g>
				<path fill="#F07F52" d="M42.685,929.472l88.873-108.348l2.06,1.562c12.904,9.751,27.11,19.118,42.219,27.842
					c15.137,8.739,31.391,16.953,48.307,24.42l6.913,3.053L42.685,929.472z M132.441,828.511l-74.933,91.35l157.636-43.079
					c-14.642-6.706-28.736-13.959-41.993-21.609C158.654,846.802,144.969,837.842,132.441,828.511z"/>
			</g>
			<g>
				<path fill="#F07F52" d="M129.735,493.337L39.683,384.635l188.958,52.177l-6.897,3.035
					c-16.927,7.452-33.084,15.606-48.022,24.242c-14.875,8.575-28.985,17.895-41.938,27.697L129.735,493.337z M54.698,394.346
					l75.897,91.619c12.565-9.371,26.161-18.287,40.444-26.522c13.083-7.562,27.089-14.764,41.724-21.447L54.698,394.346z"/>
			</g>
		</g>
	</g>
	<g>
		<g>
			<polygon fill="#FFFFFF" points="514.909,441.081 216.619,268.851 513.062,97.715 811.345,269.931 			"/>
			<path fill="#F07F52" d="M514.909,444.179L211.256,268.851L513.062,94.617l303.65,175.313L514.909,444.179z M221.983,268.851
				l292.927,169.132L805.976,269.93L513.062,100.812L221.983,268.851z"/>
		</g>
		<g>
			<polygon fill="#FFFFFF" points="513.979,488.974 215.688,316.751 215.688,269.391 513.979,441.606 			"/>
			<path fill="#F07F52" d="M516.661,493.621L213.004,318.3v-53.556l303.657,175.313V493.621z M218.371,315.202l292.923,169.125
				v-41.172L218.371,274.037V315.202z"/>
		</g>
		<g>
			<polygon fill="#FFFFFF" points="812.277,316.751 513.979,488.974 513.979,441.606 812.277,269.391 			"/>
			<path fill="#F07F52" d="M511.295,493.621v-53.562l1.342-0.772L814.96,264.744V318.3l-1.347,0.772L511.295,493.621z
				 M516.661,443.155v41.172l292.931-169.125v-41.165L516.661,443.155z"/>
		</g>
		<g>
			<polygon fill="#FFFFFF" points="512.64,815.41 242.488,659.438 242.488,334.376 512.64,490.349 			"/>
			<path fill="#F07F52" d="M515.323,820.053l-275.52-159.07V329.729l275.52,159.071V820.053z M245.172,657.893l264.784,152.875
				v-318.87L245.172,339.023V657.893z"/>
		</g>
		<g>
			<polygon fill="#FFFFFF" points="784.138,659.438 513.979,815.41 513.971,490.349 784.138,334.376 			"/>
			<path fill="#F07F52" d="M511.295,820.053l-0.009-331.253l1.343-0.772L786.821,329.73v331.253L511.295,820.053z M516.655,491.898
				l0.008,318.87l264.792-152.875v-318.87L516.655,491.898z"/>
		</g>
		<path fill="#F07F52" d="M437.868,555.896c-2.316,0-4.753-0.731-7.236-2.166l-108.82-62.819
			c-8.106-4.68-14.461-15.65-14.472-24.971c0.008-7.167,3.996-11.979,9.926-11.979c2.312,0,4.746,0.729,7.229,2.166l108.819,62.819
			c8.117,4.685,14.479,15.652,14.479,24.976C447.795,551.084,443.806,555.896,437.868,555.896z M317.266,459.324
			c-4.111,0-4.559,4.628-4.559,6.616c0.004,7.327,5.404,16.639,11.789,20.328l108.819,62.819c1.638,0.945,3.212,1.44,4.554,1.44
			c4.114,0,4.559-4.621,4.559-6.608c0-7.334-5.401-16.644-11.795-20.327l-108.82-62.823
			C320.178,459.823,318.604,459.324,317.266,459.324z"/>
	</g>
</g>
<g>
	<path fill="#F07F52" d="M514.969,923.66c-117.654,0-235.538-25.957-325.394-77.834C101.49,794.969,52.98,727.144,52.984,654.854
		c0-71.661,47.796-138.725,134.581-188.824c15.471-8.927,32.127-17.259,49.561-24.793v-107.33l-26.8-15.471v-50.458h10.728v44.263
		l25.258,14.579l1.542,6.144V448.33l-3.271,1.388c-18.217,7.722-35.596,16.339-51.648,25.605
		c-83.33,48.104-129.219,111.862-129.223,179.531c0,68.298,46.603,132.818,131.231,181.687
		c176.008,101.604,461.486,102.114,636.371,1.153c83.335-48.106,129.231-111.865,129.231-179.535
		c0-68.297-46.605-132.816-131.235-181.682c-14.364-8.299-30.282-16.28-47.323-23.728l-3.216-1.405V332.964h10.734v111.37
		c16.19,7.201,31.377,14.879,45.173,22.849c88.089,50.86,136.603,118.686,136.595,190.976c0,71.662-47.804,138.726-134.592,188.82
		C748.125,898.109,631.661,923.653,514.969,923.66z"/>
	<polygon fill="#F07F52" points="786.985,337.511 781.291,328.417 806.907,312.371 806.907,272.152 513.062,102.498 
		219.303,272.085 213.936,262.792 513.062,90.107 811.337,262.319 817.644,258.671 817.644,318.308 	"/>
	<path fill="none" stroke="#F07F52" stroke-width="1.4173" stroke-miterlimit="10" d="M784.138,332.964"/>
</g>
</svg>
