<?xml version="1.0" encoding="utf-8"?>
<!-- Generator: Adobe Illustrator 16.0.0, SVG Export Plug-In . SVG Version: 6.00 Build 0)  -->
<!DOCTYPE svg PUBLIC "-//W3C//DTD SVG 1.1//EN" "http://www.w3.org/Graphics/SVG/1.1/DTD/svg11.dtd">
<svg version="1.1" id="Layer_2" xmlns="http://www.w3.org/2000/svg" xmlns:xlink="http://www.w3.org/1999/xlink" x="0px" y="0px"
	 width="1024px" height="1024px" viewBox="0 0 1024 1024" enable-background="new 0 0 1024 1024" xml:space="preserve">
<g>
	<g>
		<polygon fill="#FFFFFF" stroke="#F07F52" stroke-width="4.8141" stroke-miterlimit="10" points="742.017,602.602 471.921,446.671 
			471.921,64.653 742.017,220.598 		"/>
		<polygon fill="none" stroke="#F07F52" stroke-width="4.8141" stroke-miterlimit="10" points="698.046,320.147 515.891,214.979 
			515.891,181.345 698.046,286.513 		"/>
		<polygon fill="none" stroke="#F07F52" stroke-width="4.8141" stroke-miterlimit="10" points="712.489,552.164 501.442,430.317 
			501.442,222.734 712.489,344.587 		"/>
		<polygon fill="none" stroke="#F07F52" stroke-width="4.8141" stroke-miterlimit="10" points="712.489,379.183 501.442,257.337 
			501.442,222.734 712.489,344.587 		"/>
		
			<line fill="none" stroke="#F07F52" stroke-width="4.8141" stroke-miterlimit="10" x1="561.743" y1="292.146" x2="561.743" y2="465.134"/>
		
			<line fill="none" stroke="#F07F52" stroke-width="4.8141" stroke-miterlimit="10" x1="561.743" y1="326.734" x2="712.489" y2="413.779"/>
		
			<line fill="none" stroke="#F07F52" stroke-width="4.8141" stroke-miterlimit="10" x1="561.743" y1="361.344" x2="712.489" y2="448.375"/>
		
			<line fill="none" stroke="#F07F52" stroke-width="4.8141" stroke-miterlimit="10" x1="561.743" y1="395.94" x2="712.489" y2="482.971"/>
		
			<line fill="none" stroke="#F07F52" stroke-width="4.8141" stroke-miterlimit="10" x1="561.743" y1="430.544" x2="712.489" y2="517.574"/>
		<g>
			<path fill="#F07F52" d="M579.913,198.852v-4.617l8.845,5.108l0.007-36.972l-8.852-5.107v-4.611l22.936,13.241l-0.007,4.61
				l-8.845-5.102v36.964l8.852,5.108l-0.007,4.617L579.913,198.852z"/>
			<path fill="#F07F52" d="M611.361,217.002V170.81l9.533,5.507c4.397,2.534,7.662,5.294,9.805,8.286
				c2.13,2.984,3.734,6.574,4.805,10.74c1.08,4.173,1.61,8.689,1.61,13.553c0,4.604-0.562,8.318-1.696,11.15
				c-1.13,2.82-2.74,4.578-4.812,5.255c-2.083,0.677-5.313-0.253-9.712-2.786L611.361,217.002z M616.595,214.939l3.489,2.01
				c3.549,2.05,6.068,2.779,7.58,2.202c1.508-0.577,2.59-1.957,3.231-4.159c0.649-2.196,0.975-5.565,0.975-10.09
				c0-4.431-0.378-8.054-1.141-10.879c-0.757-2.813-1.845-5.281-3.264-7.384c-1.413-2.104-3.735-4.066-6.968-5.944l-3.905-2.255
				L616.595,214.939L616.595,214.939z"/>
		</g>
	</g>
	<g>
		<polygon fill="#FFFFFF" stroke="#F07F52" stroke-width="4.8141" stroke-miterlimit="10" points="700.335,820.177 430.244,664.238 
			430.244,282.228 700.335,438.173 		"/>
		<polygon fill="none" stroke="#F07F52" stroke-width="4.8141" stroke-miterlimit="10" points="656.37,537.722 474.21,432.553 
			474.21,398.919 656.37,504.08 		"/>
		<polygon fill="none" stroke="#F07F52" stroke-width="4.8141" stroke-miterlimit="10" points="670.814,769.738 459.768,647.892 
			459.768,440.309 670.814,562.161 		"/>
		<polygon fill="none" stroke="#F07F52" stroke-width="4.8141" stroke-miterlimit="10" points="670.814,596.75 459.768,474.904 
			459.768,440.309 670.814,562.161 		"/>
		
			<line fill="none" stroke="#F07F52" stroke-width="4.8141" stroke-miterlimit="10" x1="520.064" y1="509.72" x2="520.064" y2="682.707"/>
		
			<line fill="none" stroke="#F07F52" stroke-width="4.8141" stroke-miterlimit="10" x1="520.064" y1="544.315" x2="670.814" y2="631.341"/>
		
			<line fill="none" stroke="#F07F52" stroke-width="4.8141" stroke-miterlimit="10" x1="520.064" y1="578.912" x2="670.814" y2="665.949"/>
		
			<line fill="none" stroke="#F07F52" stroke-width="4.8141" stroke-miterlimit="10" x1="520.064" y1="613.515" x2="670.814" y2="700.547"/>
		
			<line fill="none" stroke="#F07F52" stroke-width="4.8141" stroke-miterlimit="10" x1="520.064" y1="648.104" x2="670.814" y2="735.142"/>
		<g>
			<path fill="#F07F52" d="M538.235,416.426v-4.616l8.855,5.107v-36.971l-8.855-5.102v-4.617l22.939,13.242v4.609l-8.852-5.107
				v36.971l8.852,5.107v4.61L538.235,416.426z"/>
			<path fill="#F07F52" d="M569.679,434.57v-46.199l9.547,5.513c4.392,2.541,7.662,5.302,9.791,8.286
				c2.144,2.992,3.748,6.575,4.815,10.741c1.067,4.179,1.6,8.689,1.6,13.554c0,4.61-0.557,8.318-1.687,11.158
				c-1.142,2.819-2.738,4.578-4.814,5.255s-5.313-0.253-9.712-2.8L569.679,434.57z M574.92,432.514l3.494,2.018
				c3.542,2.036,6.059,2.771,7.569,2.194c1.513-0.583,2.603-1.97,3.244-4.158c0.647-2.202,0.969-5.565,0.969-10.104
				c0.006-4.419-0.379-8.048-1.135-10.866c-0.763-2.818-1.853-5.28-3.271-7.385c-1.404-2.103-3.729-4.079-6.959-5.943l-3.913-2.255
				v36.5L574.92,432.514L574.92,432.514z"/>
		</g>
	</g>
	<g>
		<polygon fill="#FFFFFF" stroke="#F07F52" stroke-width="4.8141" stroke-miterlimit="10" points="658.666,844.323 388.572,688.38 
			388.572,306.368 658.666,462.312 		"/>
		<polygon fill="none" stroke="#F07F52" stroke-width="4.8141" stroke-miterlimit="10" points="614.691,561.855 432.533,456.694 
			432.54,423.053 614.691,528.222 		"/>
		<polygon fill="none" stroke="#F07F52" stroke-width="4.8141" stroke-miterlimit="10" points="629.146,793.872 418.093,672.033 
			418.093,464.449 629.146,586.296 		"/>
		<polygon fill="none" stroke="#F07F52" stroke-width="4.8141" stroke-miterlimit="10" points="629.146,620.898 418.093,499.046 
			418.093,464.449 629.146,586.296 		"/>
		
			<line fill="none" stroke="#F07F52" stroke-width="4.8141" stroke-miterlimit="10" x1="478.389" y1="533.867" x2="478.389" y2="706.842"/>
		
			<line fill="none" stroke="#F07F52" stroke-width="4.8141" stroke-miterlimit="10" x1="478.389" y1="568.457" x2="629.146" y2="655.487"/>
		
			<line fill="none" stroke="#F07F52" stroke-width="4.8141" stroke-miterlimit="10" x1="478.389" y1="603.053" x2="629.146" y2="690.097"/>
		
			<line fill="none" stroke="#F07F52" stroke-width="4.8141" stroke-miterlimit="10" x1="478.389" y1="637.648" x2="629.146" y2="724.688"/>
		
			<line fill="none" stroke="#F07F52" stroke-width="4.8141" stroke-miterlimit="10" x1="478.389" y1="672.253" x2="629.146" y2="759.283"/>
		<g>
			<path fill="#F07F52" d="M496.566,440.561v-4.616l8.843,5.107v-36.958l-8.843-5.107v-4.624l22.927,13.24v4.624l-8.843-5.107
				v36.958l8.843,5.115v4.609L496.566,440.561z"/>
			<path fill="#F07F52" d="M528.011,458.719v-46.199l9.54,5.507c4.396,2.533,7.653,5.308,9.792,8.293
				c2.143,2.979,3.741,6.566,4.82,10.739c1.068,4.166,1.601,8.685,1.601,13.548c0,4.604-0.563,8.324-1.698,11.15
				c-1.128,2.825-2.727,4.584-4.815,5.261c-2.062,0.67-5.301-0.252-9.697-2.793L528.011,458.719z M533.252,456.647l3.487,2.017
				c3.549,2.045,6.063,2.78,7.576,2.209c1.513-0.59,2.594-1.97,3.237-4.173c0.644-2.195,0.962-5.56,0.976-10.09
				c0-4.433-0.379-8.055-1.146-10.88c-0.749-2.812-1.846-5.273-3.257-7.37c-1.422-2.108-3.741-4.08-6.968-5.944l-3.905-2.262
				V456.647z"/>
		</g>
	</g>
	<g>
		<polygon fill="#FFFFFF" stroke="#F07F52" stroke-width="4.8141" stroke-miterlimit="10" points="616.99,868.459 346.897,712.52 
			346.897,330.522 616.99,486.447 		"/>
		<polygon fill="none" stroke="#F07F52" stroke-width="4.8141" stroke-miterlimit="10" points="573.023,586.005 390.854,480.836 
			390.865,447.201 573.023,552.362 		"/>
		<polygon fill="none" stroke="#F07F52" stroke-width="4.8141" stroke-miterlimit="10" points="587.472,818.02 376.425,696.168 
			376.425,488.591 587.472,610.443 		"/>
		<polygon fill="none" stroke="#F07F52" stroke-width="4.8141" stroke-miterlimit="10" points="587.472,645.032 376.425,523.188 
			376.425,488.591 587.472,610.443 		"/>
		
			<line fill="none" stroke="#F07F52" stroke-width="4.8141" stroke-miterlimit="10" x1="436.721" y1="558.003" x2="436.721" y2="730.988"/>
		
			<line fill="none" stroke="#F07F52" stroke-width="4.8141" stroke-miterlimit="10" x1="436.721" y1="592.598" x2="587.472" y2="679.63"/>
		
			<line fill="none" stroke="#F07F52" stroke-width="4.8141" stroke-miterlimit="10" x1="436.721" y1="627.2" x2="587.472" y2="714.231"/>
		
			<line fill="none" stroke="#F07F52" stroke-width="4.8141" stroke-miterlimit="10" x1="436.721" y1="661.798" x2="587.472" y2="748.828"/>
		
			<line fill="none" stroke="#F07F52" stroke-width="4.8141" stroke-miterlimit="10" x1="436.721" y1="696.386" x2="587.472" y2="783.425"/>
		<g>
			<path fill="#F07F52" d="M454.898,464.709v-4.61l8.843,5.103v-36.972l-8.843-5.108v-4.61l22.927,13.242v4.61l-8.843-5.107v36.964
				l8.843,5.114v4.61L454.898,464.709z"/>
			<path fill="#F07F52" d="M486.337,482.852v-46.198l9.546,5.521c4.392,2.533,7.647,5.294,9.792,8.286
				c2.129,2.991,3.74,6.567,4.81,10.739c1.075,4.167,1.612,8.686,1.612,13.547c-0.007,4.599-0.571,8.319-1.698,11.158
				c-1.135,2.825-2.74,4.578-4.816,5.254c-2.075,0.677-5.307-0.252-9.697-2.799L486.337,482.852z M491.571,480.796l3.49,2.018
				c3.549,2.043,6.07,2.772,7.589,2.202c1.499-0.584,2.587-1.978,3.224-4.166c0.657-2.202,0.977-5.565,0.977-10.097
				c0.007-4.426-0.378-8.048-1.134-10.867c-0.765-2.826-1.858-5.279-3.266-7.391c-1.419-2.104-3.733-4.08-6.966-5.931l-3.914-2.27
				V480.796L491.571,480.796z"/>
		</g>
	</g>
	<g>
		<polygon fill="#FFFFFF" stroke="#F07F52" stroke-width="4.8141" stroke-miterlimit="10" points="575.318,892.605 305.223,736.661 
			305.223,354.657 575.318,510.596 		"/>
		<polygon fill="none" stroke="#F07F52" stroke-width="4.8141" stroke-miterlimit="10" points="531.355,610.138 349.186,504.977 
			349.186,471.336 531.355,576.505 		"/>
		<polygon fill="none" stroke="#F07F52" stroke-width="4.8141" stroke-miterlimit="10" points="545.797,842.154 334.742,720.314 
			334.742,512.731 545.797,634.577 		"/>
		<polygon fill="none" stroke="#F07F52" stroke-width="4.8141" stroke-miterlimit="10" points="545.797,669.18 334.742,547.327 
			334.742,512.731 545.797,634.577 		"/>
		
			<line fill="none" stroke="#F07F52" stroke-width="4.8141" stroke-miterlimit="10" x1="395.038" y1="582.143" x2="395.038" y2="755.123"/>
		
			<line fill="none" stroke="#F07F52" stroke-width="4.8141" stroke-miterlimit="10" x1="395.038" y1="616.738" x2="545.797" y2="703.77"/>
		
			<line fill="none" stroke="#F07F52" stroke-width="4.8141" stroke-miterlimit="10" x1="395.038" y1="651.336" x2="545.797" y2="738.38"/>
		
			<line fill="none" stroke="#F07F52" stroke-width="4.8141" stroke-miterlimit="10" x1="395.038" y1="685.931" x2="545.797" y2="772.969"/>
		
			<line fill="none" stroke="#F07F52" stroke-width="4.8141" stroke-miterlimit="10" x1="395.038" y1="720.533" x2="545.797" y2="807.564"/>
		<g>
			<path fill="#F07F52" d="M413.224,488.843v-4.61l8.843,5.107l0.007-36.964l-8.85-5.108v-4.624l22.927,13.241v4.609l-8.85-5.103
				v36.973l8.85,5.107v4.61L413.224,488.843z"/>
			<path fill="#F07F52" d="M444.656,507v-46.198l9.546,5.506c4.398,2.541,7.663,5.309,9.792,8.292
				c2.138,2.984,3.748,6.568,4.816,10.734c1.068,4.173,1.612,8.689,1.612,13.553c0,4.604-0.564,8.326-1.691,11.151
				c-1.148,2.826-2.74,4.584-4.823,5.262c-2.068,0.685-5.308-0.252-9.706-2.793L444.656,507z M449.896,504.93l3.496,2.018
				c3.542,2.044,6.07,2.779,7.576,2.209c1.506-0.59,2.594-1.971,3.236-4.173c0.65-2.195,0.977-5.564,0.977-10.091
				c0-4.432-0.385-8.054-1.143-10.872c-0.756-2.819-1.851-5.281-3.264-7.378c-1.413-2.104-3.734-4.079-6.965-5.943l-3.914-2.255
				V504.93L449.896,504.93z"/>
		</g>
	</g>
	<g>
		<polygon fill="#FFFFFF" stroke="#F07F52" stroke-width="4.8141" stroke-miterlimit="10" points="533.644,916.74 263.548,760.802 
			263.548,378.805 533.644,534.729 		"/>
		<polygon fill="none" stroke="#F07F52" stroke-width="4.8141" stroke-miterlimit="10" points="489.674,634.285 307.511,529.117 
			307.518,495.47 489.674,600.651 		"/>
		<polygon fill="none" stroke="#F07F52" stroke-width="4.8141" stroke-miterlimit="10" points="504.12,866.309 293.069,744.449 
			293.069,536.872 504.12,658.725 		"/>
		<polygon fill="none" stroke="#F07F52" stroke-width="4.8141" stroke-miterlimit="10" points="504.12,693.314 293.069,571.469 
			293.069,536.872 504.12,658.725 		"/>
		
			<line fill="none" stroke="#F07F52" stroke-width="4.8141" stroke-miterlimit="10" x1="353.37" y1="606.283" x2="353.37" y2="779.271"/>
		
			<line fill="none" stroke="#F07F52" stroke-width="4.8141" stroke-miterlimit="10" x1="353.37" y1="640.881" x2="504.12" y2="727.91"/>
		
			<line fill="none" stroke="#F07F52" stroke-width="4.8141" stroke-miterlimit="10" x1="353.37" y1="675.482" x2="504.12" y2="762.514"/>
		
			<line fill="none" stroke="#F07F52" stroke-width="4.8141" stroke-miterlimit="10" x1="353.37" y1="710.072" x2="504.12" y2="797.109"/>
		
			<line fill="none" stroke="#F07F52" stroke-width="4.8141" stroke-miterlimit="10" x1="353.37" y1="744.669" x2="504.12" y2="831.714"/>
		<g>
			<path fill="#F07F52" d="M371.549,512.983v-4.61l8.836,5.107l0.013-36.972l-8.85-5.107v-4.61l22.927,13.241v4.61l-8.85-5.107
				V516.5l8.85,5.107v4.623L371.549,512.983z"/>
			<path fill="#F07F52" d="M402.988,531.141v-46.198l9.546,5.513c4.394,2.534,7.649,5.294,9.785,8.286
				c2.145,2.992,3.742,6.562,4.823,10.74c1.068,4.166,1.604,8.684,1.604,13.554c-0.007,4.604-0.569,8.318-1.696,11.15
				c-1.137,2.826-2.733,4.577-4.816,5.255c-2.07,0.677-5.307-0.252-9.699-2.786L402.988,531.141z M408.228,529.077l3.496,2.018
				c3.542,2.044,6.057,2.772,7.569,2.203c1.513-0.584,2.594-1.979,3.235-4.166c0.657-2.195,0.977-5.565,0.977-10.099
				c0-4.425-0.378-8.047-1.143-10.879c-0.756-2.812-1.845-5.273-3.257-7.377c-1.426-2.104-3.749-4.08-6.973-5.932l-3.907-2.27
				L408.228,529.077L408.228,529.077z"/>
		</g>
	</g>
	<polyline fill="none" stroke="#F07F52" stroke-width="4.8141" stroke-miterlimit="10" points="742.017,366.804 814.823,408.85 
		814.823,771.63 	"/>
	<polygon fill="#FFFFFF" stroke="#F07F52" stroke-width="4.8141" stroke-miterlimit="10" points="814.823,772.696 513.328,946.771 
		513.328,583.974 814.823,409.911 	"/>
	<polyline fill="none" stroke="#F07F52" stroke-width="4.8141" stroke-miterlimit="10" points="210.337,771.63 210.337,408.85 
		471.921,257.814 	"/>
	<polygon fill="#FFFFFF" stroke="#F07F52" stroke-width="4.8141" stroke-miterlimit="10" points="511.829,946.771 210.337,772.696 
		210.337,409.911 511.829,583.974 	"/>
	<path fill="none" stroke="#F07F52" stroke-width="4.8141" stroke-miterlimit="10" d="M436.454,643.771
		c0,9.295-6.561,13.028-14.652,8.354l-121.436-70.107c-8.101-4.677-14.66-15.987-14.66-25.274l0,0c0-9.294,6.561-13.036,14.66-8.354
		l121.436,70.114C429.902,623.168,436.454,634.491,436.454,643.771L436.454,643.771z"/>
</g>
<g>
	<polyline fill="none" stroke="#F07F52" stroke-width="9.6281" stroke-miterlimit="10" points="471.171,253.562 209.587,404.598 
		209.587,405.659 209.587,767.377 209.587,768.444 511.079,942.52 	"/>
	<polyline fill="none" stroke="#F07F52" stroke-width="9.6281" stroke-miterlimit="10" points="741.267,362.552 741.267,216.346 
		471.171,60.401 471.171,253.562 	"/>
	<polyline fill="none" stroke="#F07F52" stroke-width="9.6281" stroke-miterlimit="10" points="512.578,942.52 814.073,768.444 
		814.073,767.377 814.073,405.659 814.073,404.598 741.267,362.552 	"/>
</g>
</svg>
