<?xml version="1.0" encoding="utf-8"?>
<!-- Generator: Adobe Illustrator 16.0.0, SVG Export Plug-In . SVG Version: 6.00 Build 0)  -->
<!DOCTYPE svg PUBLIC "-//W3C//DTD SVG 1.1//EN" "http://www.w3.org/Graphics/SVG/1.1/DTD/svg11.dtd">
<svg version="1.1" id="Layer_2" xmlns="http://www.w3.org/2000/svg" xmlns:xlink="http://www.w3.org/1999/xlink" x="0px" y="0px"
	 width="1024px" height="1024px" viewBox="0 0 1024 1024" enable-background="new 0 0 1024 1024" xml:space="preserve">
<g>
	<g>
		<g>
			<polygon fill="#FFFFFF" points="512.991,337.172 302.079,215.393 511.687,94.387 722.588,216.159 			"/>
			<path fill="#08B077" d="M512.991,339.802l-215.47-124.409L511.687,91.756l215.46,124.403L512.991,339.802z M306.636,215.393
				l206.355,119.146l205.035-118.38l-206.34-119.14L306.636,215.393z"/>
		</g>
		<g>
			<polygon fill="#FFFFFF" points="512.334,371.031 301.427,249.26 301.427,215.77 512.334,337.541 			"/>
			<path fill="#08B077" d="M514.614,374.979L299.147,250.575v-38.752l215.466,124.403L514.614,374.979L514.614,374.979z
				 M303.705,247.944l206.349,119.14v-28.228L303.705,219.716V247.944z"/>
		</g>
		<g>
			<polygon fill="#FFFFFF" points="723.245,249.26 512.334,371.031 512.334,337.541 723.245,215.77 			"/>
			<path fill="#08B077" d="M510.054,374.979v-38.753l1.14-0.656l214.333-123.747v38.752l-1.143,0.656L510.054,374.979z
				 M514.614,338.856v28.228l206.354-119.14v-28.229L514.614,338.856z"/>
		</g>
		<g>
			<polygon fill="#FFFFFF" points="511.392,601.846 320.372,491.566 320.372,261.725 511.392,371.998 			"/>
			<path fill="#08B077" d="M513.671,605.789L318.093,492.883V257.778l195.578,112.904V605.789z M322.653,490.25l186.459,107.651
				V373.314L322.653,265.672V490.25z"/>
		</g>
		<g>
			<polygon fill="#FFFFFF" points="703.353,491.566 512.334,601.846 512.325,371.998 703.353,261.725 			"/>
			<path fill="#08B077" d="M510.054,605.789l-0.006-235.104L705.632,257.78v235.104l-1.145,0.654L510.054,605.789z M514.607,373.314
				l0.007,224.587l186.46-107.651V265.672L514.607,373.314z"/>
		</g>
		<path fill="#08B077" d="M458.516,418.729c-1.702,0-3.488-0.53-5.303-1.579l-76.94-44.417
			c-5.837-3.369-10.418-11.271-10.434-17.979c0.012-5.304,2.988-8.859,7.406-8.859c1.705,0,3.488,0.529,5.308,1.582l76.938,44.417
			c5.845,3.379,10.421,11.281,10.421,17.992C465.911,415.176,462.94,418.729,458.516,418.729z M373.244,350.449
			c-2.562,0-2.846,3.012-2.849,4.306c0.009,5.057,3.746,11.485,8.154,14.034l76.938,44.417c1.098,0.632,2.146,0.968,3.024,0.968
			c2.562,0,2.838-2.999,2.838-4.289c0-5.062-3.728-11.495-8.142-14.048l-76.94-44.417
			C375.174,350.785,374.125,350.449,373.244,350.449z"/>
	</g>
	<g>
		<g>
			<polygon fill="#FFFFFF" points="773.555,503.039 562.641,381.261 772.246,260.262 983.15,382.027 			"/>
			<path fill="#08B077" d="M773.555,505.672l-1.137-0.659L558.08,381.262l214.166-123.632l1.139,0.659l214.321,123.737
				L773.555,505.672z M567.198,381.261l206.354,119.146l205.035-118.38L772.246,262.893L567.198,381.261z"/>
		</g>
		<g>
			<polygon fill="#FFFFFF" points="772.895,536.906 561.989,415.129 561.989,381.645 772.895,503.409 			"/>
			<path fill="#08B077" d="M775.175,540.85L559.706,416.443v-38.746l215.469,124.396V540.85z M564.268,413.812l206.348,119.149
				v-28.237L564.268,385.592V413.812z"/>
		</g>
		<g>
			<polygon fill="#FFFFFF" points="983.802,415.129 772.895,536.906 772.895,503.409 983.802,381.645 			"/>
			<path fill="#08B077" d="M770.615,540.85v-38.756l1.145-0.656l214.323-123.74v38.746l-1.145,0.656L770.615,540.85z
				 M775.175,504.725v28.237l206.348-119.149v-28.222L775.175,504.725z"/>
		</g>
		<g>
			<polygon fill="#FFFFFF" points="771.951,767.716 580.934,657.434 580.934,427.594 771.951,537.873 			"/>
			<path fill="#08B077" d="M774.233,771.657L578.655,658.746v-235.1L774.233,536.56V771.657L774.233,771.657z M583.214,656.121
				l186.46,107.648V539.186L583.214,431.54V656.121z"/>
		</g>
		<g>
			<polygon fill="#FFFFFF" points="963.912,657.434 772.895,767.716 772.889,537.873 963.912,427.594 			"/>
			<path fill="#08B077" d="M770.615,771.657l-0.006-235.097l195.584-112.914v235.1L770.615,771.657z M775.168,539.186l0.007,224.584
				l186.46-107.648V431.54L775.168,539.186z"/>
		</g>
		<path fill="#08B077" d="M719.075,584.602c-1.7,0-3.489-0.534-5.307-1.583l-76.935-44.411
			c-5.848-3.372-10.432-11.278-10.438-17.991c0.007-5.294,2.983-8.854,7.41-8.854c1.702,0,3.484,0.534,5.301,1.582l76.939,44.424
			c5.847,3.385,10.425,11.285,10.425,17.984C726.475,581.049,723.504,584.602,719.075,584.602z M633.81,516.32
			c-2.568,0-2.851,3.009-2.851,4.296c0.006,5.062,3.734,11.498,8.149,14.048l76.939,44.41c1.104,0.635,2.146,0.976,3.025,0.976
			c2.562,0,2.838-3.001,2.838-4.295c0-5.058-3.729-11.485-8.145-14.042l-76.935-44.425C635.739,516.653,634.69,516.32,633.81,516.32
			z"/>
	</g>
	<g>
		<g>
			<polygon fill="#FFFFFF" points="252.432,500.766 41.525,378.988 251.125,257.982 462.026,379.755 			"/>
			<path fill="#08B077" d="M252.432,503.397L36.969,378.988l214.157-123.637l215.455,124.402L252.432,503.397z M46.08,378.988
				l206.352,119.147L457.47,379.755L251.125,260.613L46.08,378.988z"/>
		</g>
		<g>
			<polygon fill="#FFFFFF" points="251.779,534.635 40.865,412.854 40.865,379.364 251.779,501.136 			"/>
			<path fill="#08B077" d="M254.058,538.576L38.586,414.171v-38.752L254.058,499.82V538.576z M43.145,411.539l206.354,119.15
				v-28.237L43.145,383.312V411.539z"/>
		</g>
		<g>
			<polygon fill="#FFFFFF" points="462.686,412.854 251.779,534.635 251.779,501.136 462.686,379.364 			"/>
			<path fill="#08B077" d="M249.499,538.576V499.82l1.14-0.656l214.326-123.745v38.752l-1.142,0.655L249.499,538.576z
				 M254.058,502.452v28.237l206.348-119.15v-28.228L254.058,502.452z"/>
		</g>
		<g>
			<polygon fill="#FFFFFF" points="250.83,765.44 59.811,655.161 59.811,425.32 250.83,535.6 			"/>
			<path fill="#08B077" d="M253.11,769.385L57.531,656.474V421.373L253.11,534.287V769.385z M62.091,653.849L248.55,761.497V536.912
				L62.091,429.267V653.849z"/>
		</g>
		<g>
			<polygon fill="#FFFFFF" points="442.789,655.161 251.779,765.44 251.766,535.6 442.789,425.32 			"/>
			<path fill="#08B077" d="M249.499,769.385l-0.015-235.1L445.07,421.373v235.103L249.499,769.385z M254.046,536.912l0.012,224.585
				L440.512,653.85V429.267L254.046,536.912z"/>
		</g>
		<path fill="#08B077" d="M197.961,582.328c-1.708,0-3.495-0.532-5.312-1.583l-76.938-44.417
			c-5.834-3.357-10.418-11.26-10.436-17.979c0.015-5.304,2.989-8.861,7.407-8.861c1.705,0,3.489,0.531,5.309,1.583l76.938,44.423
			c5.846,3.379,10.427,11.278,10.427,17.985C205.358,578.773,202.385,582.328,197.961,582.328z M112.684,514.047
			c-2.562,0-2.845,3.011-2.848,4.305c0.009,5.061,3.743,11.491,8.149,14.035l76.943,44.417c1.099,0.634,2.147,0.974,3.03,0.974
			c2.562,0,2.838-3.002,2.838-4.296c0-5.056-3.73-11.485-8.148-14.042l-76.938-44.423
			C114.612,514.383,113.563,514.047,112.684,514.047z"/>
	</g>
	<g>
		<g>
			<polygon fill="#FFFFFF" points="512.991,666.635 302.079,544.856 511.687,423.857 722.588,545.622 			"/>
			<path fill="#08B077" d="M512.991,669.266l-215.47-124.409l214.163-123.631l215.46,124.396L512.991,669.266z M306.636,544.856
				l206.355,119.146L718.027,545.62l-206.34-119.132L306.636,544.856z"/>
		</g>
		<g>
			<polygon fill="#FFFFFF" points="512.334,700.503 301.427,578.723 301.427,545.239 512.334,667.011 			"/>
			<path fill="#08B077" d="M514.614,704.445l-215.466-124.41v-38.737l215.466,124.4V704.445z M303.705,577.41l206.349,119.147
				v-28.234l-206.349-119.14V577.41z"/>
		</g>
		<g>
			<polygon fill="#FFFFFF" points="723.245,578.723 512.334,700.503 512.334,667.011 723.245,545.239 			"/>
			<path fill="#08B077" d="M510.054,704.445v-38.747l215.473-124.4v38.737L510.054,704.445z M514.614,668.323v28.234L720.967,577.41
				v-28.228L514.614,668.323z"/>
		</g>
		<g>
			<polygon fill="#FFFFFF" points="511.392,931.315 320.372,821.035 320.372,591.188 511.392,701.469 			"/>
			<path fill="#08B077" d="M513.671,935.26L318.093,822.348V587.245l195.578,112.911V935.26z M322.653,819.723L509.112,927.37
				V702.78L322.653,595.135V819.723z"/>
		</g>
		<g>
			<polygon fill="#FFFFFF" points="703.353,821.035 512.334,931.315 512.325,701.469 703.353,591.188 			"/>
			<path fill="#08B077" d="M510.054,935.26l-0.006-235.104l195.584-112.911v235.104L510.054,935.26z M514.607,702.78l0.007,224.591
				l186.46-107.646v-224.59L514.607,702.78z"/>
		</g>
		<path fill="#08B077" d="M458.522,748.196c-1.708,0-3.495-0.534-5.31-1.583l-76.94-44.41c-5.837-3.373-10.418-11.266-10.434-17.979
			c0.012-5.307,2.988-8.86,7.406-8.86c1.705,0,3.488,0.533,5.308,1.582l76.938,44.417c5.845,3.379,10.421,11.285,10.421,17.992
			C465.911,744.642,462.943,748.196,458.522,748.196z M373.244,679.924c-2.562,0-2.846,3.008-2.849,4.302
			c0.009,5.056,3.746,11.483,8.154,14.035l76.938,44.411c1.101,0.635,2.148,0.974,3.03,0.974c2.556,0,2.832-3.002,2.832-4.289
			c0-5.062-3.728-11.492-8.142-14.048l-76.94-44.418C375.174,680.257,374.125,679.924,373.244,679.924z"/>
	</g>
</g>
<g>
	<polygon fill="#08B077" points="317.533,265.531 296.538,251.715 296.538,215.77 305.65,215.77 305.65,246.804 322.546,257.92 	"/>
	<polygon fill="#08B077" points="705.438,265.587 700.602,257.863 718.355,246.738 718.355,219.167 511.354,99.649 304.027,219.34 
		299.467,211.446 511.354,89.125 722.255,210.894 727.474,207.889 727.474,251.781 	"/>
	<path fill="#08B077" d="M514.281,935.26l-2.75-4.761l-2.75,4.761L315.484,823.669v-89.936l-61.759,35.651l-4.559-7.89l75.43-43.551
		v100.458l186.934,107.92l186.933-107.918v-98.189L773.9,763.77l-4.559,7.888l-61.764-35.654v87.666L514.281,935.26z
		 M965.997,431.456l-4.836-7.724l17.747-11.125v-27.574L771.913,265.524l-73.452,42.4v-46.2h9.116v30.413L771.913,255
		l210.907,121.767l5.206-2.976v43.858L965.997,431.456z M56.973,429.128l-20.997-13.815v-35.946h5.434l-2.496-4.322l211.88-122.32
		l64.689,37.353v-28.347h9.112v44.134l-73.803-42.614L45.088,381.999v28.4l16.896,11.115L56.973,429.128z"/>
	<polygon fill="#08B077" points="774.842,771.657 770.281,763.77 959.022,654.803 959.022,427.594 968.141,427.594 968.141,660.065 
			"/>
	<polygon fill="#08B077" points="248.218,769.385 54.923,657.794 54.923,425.32 64.034,425.32 64.034,652.529 252.777,761.497 	"/>
</g>
</svg>
